HIERARCHY
ROOT Hips
{
	OFFSET 0.00000 0.00000 0.00000
	CHANNELS 6 Xposition Yposition Zposition Zrotation Yrotation Xrotation 
	JOINT LHipJoint
	{
		OFFSET 0 0 0
		CHANNELS 3 Zrotation Yrotation Xrotation
		JOINT LeftUpLeg
		{
			OFFSET 1.74857 -1.85566 0.69197
			CHANNELS 3 Zrotation Yrotation Xrotation
			JOINT LeftLeg
			{
				OFFSET 2.40003 -6.59403 0.00000
				CHANNELS 3 Zrotation Yrotation Xrotation
				JOINT LeftFoot
				{
					OFFSET 2.82169 -7.75254 0.00000
					CHANNELS 3 Zrotation Yrotation Xrotation
					JOINT LeftToeBase
					{
						OFFSET 0.16466 -0.45240 2.26890
						CHANNELS 3 Zrotation Yrotation Xrotation
						End Site
						{
							OFFSET 0.00000 -0.00000 1.16486
						}
					}
				}
			}
		}
	}
	JOINT RHipJoint
	{
		OFFSET 0 0 0
		CHANNELS 3 Zrotation Yrotation Xrotation
		JOINT RightUpLeg
		{
			OFFSET -1.64169 -1.85566 0.69197
			CHANNELS 3 Zrotation Yrotation Xrotation
			JOINT RightLeg
			{
				OFFSET -2.41814 -6.64379 0.00000
				CHANNELS 3 Zrotation Yrotation Xrotation
				JOINT RightFoot
				{
					OFFSET -2.80588 -7.70911 0.00000
					CHANNELS 3 Zrotation Yrotation Xrotation
					JOINT RightToeBase
					{
						OFFSET -0.19098 -0.52472 2.25401
						CHANNELS 3 Zrotation Yrotation Xrotation
						End Site
						{
							OFFSET -0.00000 -0.00000 1.16333
						}
					}
				}
			}
		}
	}
	JOINT LowerBack
	{
		OFFSET 0 0 0
		CHANNELS 3 Zrotation Yrotation Xrotation
		JOINT Spine
		{
			OFFSET -0.02828 2.14690 -0.11061
			CHANNELS 3 Zrotation Yrotation Xrotation
			JOINT Spine1
			{
				OFFSET -0.00167 2.15299 0.00759
				CHANNELS 3 Zrotation Yrotation Xrotation
				JOINT Neck
				{
					OFFSET 0 0 0
					CHANNELS 3 Zrotation Yrotation Xrotation
					JOINT Neck1
					{
						OFFSET -0.09296 1.90118 0.07197
						CHANNELS 3 Zrotation Yrotation Xrotation
						JOINT Head
						{
							OFFSET 0.08490 1.89526 -0.24604
							CHANNELS 3 Zrotation Yrotation Xrotation
							End Site
							{
								OFFSET 0.03186 1.92109 -0.09483
							}
						}
					}
				}
				JOINT LeftShoulder
				{
					OFFSET 0 0 0
					CHANNELS 3 Zrotation Yrotation Xrotation
					JOINT LeftArm
					{
						OFFSET 3.21569 1.44644 -0.03720
						CHANNELS 3 Zrotation Yrotation Xrotation
						JOINT LeftForeArm
						{
							OFFSET 5.47651 -0.00000 -0.00000
							CHANNELS 3 Zrotation Yrotation Xrotation
							JOINT LeftHand
							{
								OFFSET 3.09058 -0.00000 -0.00000
								CHANNELS 3 Zrotation Yrotation Xrotation
								JOINT LeftFingerBase
								{
									OFFSET 0 0 0
									CHANNELS 3 Zrotation Yrotation Xrotation
									JOINT LeftHandIndex1
									{
										OFFSET 0.77161 -0.00000 -0.00000
										CHANNELS 3 Zrotation Yrotation Xrotation
										End Site
										{
											OFFSET 0.62209 -0.00000 -0.00000
										}
									}
								}
								JOINT LThumb
								{
									OFFSET 0 0 0
									CHANNELS 3 Zrotation Yrotation Xrotation
									End Site
									{
										OFFSET 0.63159 -0.00000 0.63159
									}
								}
							}
						}
					}
				}
				JOINT RightShoulder
				{
					OFFSET 0 0 0
					CHANNELS 3 Zrotation Yrotation Xrotation
					JOINT RightArm
					{
						OFFSET -3.38693 1.28904 -0.07093
						CHANNELS 3 Zrotation Yrotation Xrotation
						JOINT RightForeArm
						{
							OFFSET -5.14182 -0.00000 -0.00000
							CHANNELS 3 Zrotation Yrotation Xrotation
							JOINT RightHand
							{
								OFFSET -3.35565 -0.00000 -0.00000
								CHANNELS 3 Zrotation Yrotation Xrotation
								JOINT RightFingerBase
								{
									OFFSET 0 0 0
									CHANNELS 3 Zrotation Yrotation Xrotation
									JOINT RightHandIndex1
									{
										OFFSET -0.80104 -0.00000 -0.00000
										CHANNELS 3 Zrotation Yrotation Xrotation
										End Site
										{
											OFFSET -0.64582 -0.00000 -0.00000
										}
									}
								}
								JOINT RThumb
								{
									OFFSET 0 0 0
									CHANNELS 3 Zrotation Yrotation Xrotation
									End Site
									{
										OFFSET -0.65568 -0.00000 0.65568
									}
								}
							}
						}
					}
				}
			}
		}
	}
}
MOTION
Frames: 8
Frame Time: .0083333
-0.923 18.15 -0.1233 0 0 0 0 0 0 -21 0 0 0 0 0 0 0 0 0 0 0 0 0 0 21 0 0 0 0 0 0 0 0 0 0 0 0 0 0 0 0 0 0 0 0 0 0 -16 0 0 21 0 0 11 0 0 0 -8 0 0 0 0 0 0 0 0 0 0 0 0 0 0 0 0 0 0 0 0 8 0 0 0 0 0 0 0 0 0 0 0 0 0 0 0 0 0
-0.9230 18.1500 -0.1233 2.4354 -2.1377 1.8227 0.0000 0.0000 0.0000 -18.6169 -2.7430 0.1220 0.3165 3.6164 10.0000 -0.1011 14.2052 -19.0015 0.7618 -5.5739 -15.5529 0.0000 0.0000 0.0000 19.9697 3.1426 -5.3680 -1.0862 -6.6238 18.6054 -0.0827 -14.2498 -21.1377 -0.0934 1.9709 -5.4253 -2.5667 1.9179 2.5245 1.0934 2.5240 4.8881 2.5739 1.1486 3.4616 -6.2097 -5.1772 1.1676 1.6113 -6.9765 16.1933 1.2329 -3.6728 4.9613 -0.0000 -0.0000 0.0000 -75.8487 14.5164 50.8680 106.4304 -58.9550 -74.1792 -0.0000 0.0000 -5.8605 4.2033 24.2995 1.7323 -7.1250 0.0000 -0.0000 -25.6629 52.4507 -4.9725 -0.0000 -0.0000 0.0000 76.8990 -13.4292 36.8366 -87.1961 59.9703 -57.5720 0.0000 0.0000 19.6687 9.2084 10.0389 1.6187 7.1250 -0.0000 -0.0000 25.0639 -20.0857 16.5761
-0.9259 18.1484 -0.1229 2.4833 -2.1111 1.8363 0.0000 0.0000 0.0000 -18.6641 -2.7930 0.1028 0.3183 3.6264 10.0279 -0.1011 14.1694 -18.9485 0.7255 -5.4425 -15.1750 0.0000 0.0000 0.0000 19.9150 3.1076 -5.4263 -1.0938 -6.6463 18.6718 -0.0855 -14.2239 -21.1315 -0.0959 1.9967 -5.4966 -2.5958 1.9204 2.5054 1.0817 2.5283 4.8919 2.5790 1.1497 3.4754 -6.2631 -5.1846 1.1365 1.6503 -6.9883 16.2287 1.2516 -3.6795 4.9813 -0.0000 -0.0000 0.0000 -75.8514 14.5454 50.9104 106.4616 -58.9509 -74.2059 -0.0000 0.0000 -5.8613 4.2638 24.1601 1.7478 -7.1250 0.0000 -0.0000 -25.5235 52.3357 -4.8677 -0.0000 -0.0000 0.0000 76.8931 -13.4897 36.8731 -87.3382 59.9732 -57.6951 0.0000 0.0000 19.6152 9.1543 10.0996 1.6187 7.1250 -0.0000 -0.0000 25.0188 -20.0315 16.5738
-0.9299 18.1447 -0.1238 2.5340 -2.1096 1.8518 0.0000 0.0000 0.0000 -18.7070 -2.8063 0.0904 0.3185 3.6275 10.0311 -0.0992 14.1236 -18.9022 0.6916 -5.3165 -14.8136 0.0000 0.0000 0.0000 19.8679 3.1576 -5.4969 -1.1059 -6.6815 18.7752 -0.0897 -14.2325 -21.1877 -0.0972 2.0108 -5.5356 -2.6204 1.9513 2.4924 1.0461 2.5707 4.8924 2.5565 1.1706 3.4813 -6.2526 -5.2021 1.1459 1.7196 -7.0224 16.2368 1.2698 -3.6918 4.9855 -0.0000 -0.0000 0.0000 -75.7829 14.5436 50.9947 106.4838 -58.9480 -74.2249 -0.0000 0.0000 -5.8555 4.3339 24.0128 1.7665 -7.1250 0.0000 -0.0000 -25.3711 52.2150 -4.7574 -0.0000 -0.0000 0.0000 76.9889 -13.5409 36.8226 -87.4397 59.9752 -57.7829 0.0000 0.0000 19.5641 9.1144 10.2311 1.6322 7.1250 -0.0000 -0.0000 24.9705 -19.9120 16.6102
-0.9320 18.1441 -0.1244 2.5571 -2.0953 1.8636 0.0000 0.0000 0.0000 -18.7303 -2.8640 0.0885 0.3198 3.6351 10.0524 -0.1063 14.2237 -18.9662 0.7240 -5.4370 -15.1592 0.0000 0.0000 0.0000 19.8413 3.0718 -5.5774 -1.1138 -6.7048 18.8438 -0.1032 -14.1317 -21.1941 -0.1004 2.0436 -5.6260 -2.5875 1.9717 2.4956 1.0144 2.5987 4.8853 2.5050 1.1867 3.4729 -6.2160 -5.2018 1.1479 1.7440 -7.0266 16.2512 1.2712 -3.6905 4.9890 -0.0000 -0.0000 0.0000 -75.7100 14.5657 51.0504 106.5236 -58.9428 -74.2590 -0.0000 0.0000 -5.8550 4.1416 23.9011 1.6804 -7.1250 0.0000 -0.0000 -25.4857 52.0820 -4.6949 -0.0000 -0.0000 0.0000 77.0823 -13.5955 36.7881 -87.5186 59.9767 -57.8512 0.0000 0.0000 19.5860 9.0107 10.2874 1.6221 7.1250 -0.0000 -0.0000 24.8947 -19.8630 16.5791
-0.9337 18.1446 -0.1261 2.5591 -2.0583 1.8654 0.0000 0.0000 0.0000 -18.7231 -2.8935 0.0948 0.3182 3.6262 10.0273 -0.1146 14.3076 -18.9916 0.7572 -5.5574 -15.5054 0.0000 0.0000 0.0000 19.8439 2.9712 -5.6664 -1.1231 -6.7317 18.9229 -0.1123 -14.0678 -21.2046 -0.1036 2.0751 -5.7132 -2.5713 1.9671 2.5181 1.0256 2.5918 4.8890 2.5067 1.1837 3.4647 -6.1861 -5.1933 1.1197 1.6881 -7.0067 16.2692 1.2491 -3.6819 4.9955 0.0000 0.0000 0.0000 -75.7094 14.5762 51.0514 106.5766 -58.9358 -74.3044 -0.0000 0.0000 -5.9429 3.9522 23.7885 1.5963 -7.1250 0.0000 -0.0000 -25.5970 51.9492 -4.6309 0.0000 0.0000 0.0000 77.0818 -13.6499 36.8054 -87.6712 59.9795 -57.9833 0.0000 0.0000 19.6286 8.9570 10.3203 1.6174 7.1250 -0.0000 -0.0000 24.8548 -19.8342 16.5646
-0.9368 18.1445 -0.1303 2.5634 -1.9498 1.8433 0.0000 0.0000 0.0000 -18.7120 -2.9195 0.1318 0.3140 3.6025 9.9611 -0.1164 14.2368 -18.8621 0.7320 -5.4664 -15.2437 0.0000 0.0000 0.0000 19.8552 2.9555 -5.6884 -1.1301 -6.7518 18.9821 -0.1215 -14.0871 -21.3261 -0.0934 1.9714 -5.4265 -2.5474 1.9538 2.5895 1.0259 2.5723 4.8963 2.4911 1.1753 3.4342 -6.1159 -5.2093 1.1524 1.6368 -7.0248 16.2043 1.2229 -3.6891 4.9663 0.0000 0.0000 0.0000 -75.6966 14.5567 51.0768 106.6171 -58.9305 -74.3392 -0.0000 0.0000 -6.0045 3.6007 24.0534 1.4692 -7.1250 0.0000 -0.0000 -26.0803 52.1279 -4.8479 0.0000 0.0000 0.0000 77.1178 -13.6774 36.7803 -87.8102 59.9819 -58.1037 0.0000 0.0000 19.6279 8.9986 10.3660 1.6322 7.1250 -0.0000 -0.0000 24.8734 -19.7912 16.6070
-0.9410 18.1429 -0.1350 2.6970 -1.7829 1.7525 0.0000 0.0000 0.0000 -18.8493 -3.0196 0.2209 0.3144 3.6046 9.9668 -0.1101 14.1503 -18.8085 0.7025 -5.3572 -14.9303 0.0000 0.0000 0.0000 19.7261 2.8244 -5.6400 -1.1320 -6.7574 18.9985 -0.1046 -14.1833 -21.2778 -0.0979 2.0174 -5.5537 -2.6534 1.9171 2.7358 0.9951 2.5204 4.9205 2.5138 1.1470 3.3776 -6.1035 -5.2029 1.1470 1.6435 -7.0169 16.2016 1.2233 -3.6840 4.9657 -0.0000 -0.0000 0.0000 -75.6853 14.5540 51.0985 106.6963 -58.9200 -74.4070 -0.0000 0.0000 -6.0858 3.2444 24.6241 1.3530 -7.1250 0.0000 -0.0000 -26.7572 52.5766 -5.2963 -0.0000 -0.0000 0.0000 77.1233 -13.7083 36.8220 -87.9421 59.9840 -58.2179 0.0000 0.0000 19.6003 8.8837 10.3623 1.6104 7.1250 -0.0000 -0.0000 24.8009 -19.7976 16.5435
